<!-- AUTO-GENERATED by brand/sync.sh — DO NOT EDIT. Source: noah/brand/build.py -->
<svg xmlns="http://www.w3.org/2000/svg" viewBox="0 0 128 128" width="128" height="128" role="img" aria-label="Noah">
  <title>Noah</title>
  <defs>
    <linearGradient id="plate" x1="0" y1="0" x2="0" y2="1">
      <stop offset="0" stop-color="#171719"/>
      <stop offset="1" stop-color="#0e0e10"/>
    </linearGradient>
    <clipPath id="tile"><rect width="128" height="128" rx="29"/></clipPath>
  </defs>
  <g clip-path="url(#tile)">
    <rect width="128" height="128" fill="url(#plate)"/>
  <g transform="translate(26.88 26.88) scale(3.072)" fill="none" stroke="#fafafa" stroke-width="2.0" stroke-linecap="round" stroke-linejoin="round">
    <path d="M14.7 6.3a1 1 0 0 0 0 1.4l1.6 1.6a1 1 0 0 0 1.4 0l3.77-3.77a6 6 0 0 1-7.94 7.94l-6.91 6.91a2.12 2.12 0 0 1-3-3l6.91-6.91a6 6 0 0 1 7.94-7.94l-3.76 3.76z"/>
  </g>
  </g>
</svg>
